<svg width="236" height="26" viewBox="0 0 236 26" fill="none" xmlns="http://www.w3.org/2000/svg">
<g clip-path="url(#clip0_58023_385)">
<mask id="mask0_58023_385" style="mask-type:luminance" maskUnits="userSpaceOnUse" x="0" y="0" width="236" height="26">
<path d="M236 0H0V26H236V0Z" fill="white"/>
</mask>
<g mask="url(#mask0_58023_385)">
<path d="M0.310915 5.97189C3.0313 11.7873 5.75169 17.8896 9.24933 23.2878C11.9438 27.4604 16.2187 26.3651 18.7577 22.662C20.4677 20.1845 21.9445 17.4985 23.5249 14.9428C24.6908 13.0391 26.5562 8.21462 29.0693 7.82344C34.5619 6.93679 34.7432 19.0632 30.8052 19.8716C27.748 20.5235 25.2867 15.8816 25.8048 13.4042C26.323 10.9268 28.7325 9.30991 31.1161 9.02304C38.4481 8.16246 38.1632 15.7773 40.7799 20.2888C42.9303 23.992 47.542 26.1304 51.1174 23.0531C55.5736 19.2196 54.3559 13.3781 56.0141 8.34501L50.1329 7.53658C50.5215 11.9699 51.0137 16.5075 53.4491 20.3671C55.3923 23.4443 58.9417 26.7302 62.8539 25.8696C66.7661 25.009 69.9269 20.1324 71.6628 16.7944C73.7354 12.8044 74.6941 7.30188 79.6167 5.91973C83.3216 4.8766 81.7411 -0.938842 78.0362 0.104287C71.1446 2.03408 69.4865 8.00599 66.507 13.7432C65.6779 15.3601 64.6675 16.8465 63.4757 18.1765C61.9989 19.8194 60.9108 19.9759 59.4081 18.3069C56.8172 15.4122 56.4804 11.2136 56.1436 7.53658C55.8586 4.19857 51.3505 3.39014 50.2624 6.72816C49.4074 9.33598 49.4592 11.9438 48.9929 14.6038C48.8633 15.3601 48.4488 17.8114 47.5938 18.1504C46.0393 18.7502 45.4693 15.9599 45.1584 14.995C43.6039 10.2226 41.8162 5.78934 36.79 3.85955C27.8516 0.469383 16.8664 8.18854 20.4159 18.1243C21.9445 22.4012 26.1935 25.8957 30.8052 25.8957C35.7278 25.8957 38.1372 21.5928 38.9145 17.2377C39.6917 12.7783 39.4327 7.71913 35.9091 4.43327C32.7483 1.46036 27.8257 0.886635 24.354 3.54661C22.1517 5.2417 20.8045 7.92776 19.3795 10.2487L16.6591 14.6559C15.856 15.9599 13.9647 18.0983 13.6019 19.6108C13.7574 19.011 14.431 21.6188 14.1201 19.689C13.9906 18.8545 13.0579 17.8114 12.6174 17.0291C11.8402 15.5948 11.0629 14.1605 10.3116 12.7262C8.62753 9.49245 7.0212 6.23267 5.4667 2.92074C3.83447 -0.573747 -1.32131 2.47741 0.310915 5.97189Z" fill="#EA882A"/>
<path d="M77.4405 5.97189C80.1609 11.7873 82.8813 17.8896 86.379 23.2878C89.0734 27.4604 93.3483 26.3651 95.8873 22.662C97.5973 20.1845 99.0741 17.4985 100.655 14.9428C101.82 13.0391 103.686 8.21462 106.199 7.82344C111.692 6.93679 111.873 19.0632 107.935 19.8716C104.878 20.5235 102.416 15.8816 102.934 13.4042C103.453 10.9268 105.862 9.30991 108.246 9.02304C115.578 8.16246 115.293 15.7773 117.91 20.2888C120.06 23.992 124.672 26.1304 128.247 23.0531C132.703 19.2196 131.486 13.3781 133.144 8.34501L127.262 7.53658C127.651 11.9699 128.143 16.5075 130.579 20.3671C132.522 23.4443 136.071 26.7302 139.984 25.8696C143.896 25.009 147.057 20.1324 148.792 16.7944C150.865 12.8044 151.824 7.30188 156.746 5.91973C160.451 4.8766 158.871 -0.938842 155.166 0.104287C148.274 2.03408 146.616 8.00599 143.637 13.7432C142.808 15.3601 141.797 16.8465 140.605 18.1765C139.129 19.8194 138.04 19.9759 136.538 18.3069C133.947 15.4122 133.61 11.2136 133.273 7.53658C132.988 4.19857 128.48 3.39014 127.392 6.72816C126.537 9.33598 126.589 11.9438 126.123 14.6038C125.993 15.3601 125.578 17.8114 124.723 18.1504C123.169 18.7502 122.599 15.9599 122.288 14.995C120.734 10.2226 118.946 5.78934 113.92 3.85955C105.033 0.443305 94.0478 8.16246 97.5973 18.0983C99.1259 22.3751 103.375 25.8696 107.987 25.8696C112.909 25.8696 115.319 21.5667 116.096 17.2116C116.873 12.7522 116.614 7.69305 113.091 4.4072C109.93 1.43428 105.007 0.860556 101.535 3.52054C99.3332 5.21562 97.9859 7.90168 96.561 10.2226L93.8406 14.6299C93.0374 15.9338 91.1461 18.0722 90.7834 19.5847C90.9388 18.9849 91.6125 21.5928 91.3016 19.663C91.172 18.8285 90.2393 17.7853 89.7989 17.003C89.0216 15.5687 88.2444 14.1344 87.493 12.7001C85.809 9.46637 84.2026 6.20659 82.6481 2.89466C81.0159 -0.599825 75.8601 2.45133 77.4664 5.94581L77.4405 5.97189Z" fill="#EA882A"/>
<path d="M154.57 5.97189C157.29 11.7873 160.011 17.8896 163.508 23.2878C166.203 27.4604 170.478 26.3651 173.017 22.662C174.727 20.1845 176.203 17.4985 177.784 14.9428C178.95 13.0391 180.815 8.21462 183.328 7.82344C188.821 6.93679 189.002 19.0632 185.064 19.8716C182.007 20.5235 179.546 15.8816 180.064 13.4042C180.582 10.9268 182.992 9.30991 185.375 9.02304C192.707 8.16246 192.422 15.7773 195.039 20.2888C197.189 23.992 201.801 26.1304 205.376 23.0531C209.833 19.2196 208.615 13.3781 210.273 8.34501L204.392 7.53658C204.781 11.9699 205.273 16.5075 207.708 20.3671C209.651 23.4443 213.201 26.7302 217.113 25.8696C221.025 25.009 224.186 20.1324 225.922 16.7944C227.994 12.8044 228.953 7.30188 233.876 5.91973C237.581 4.8766 236 -0.938842 232.295 0.104287C225.404 2.03408 223.745 8.00599 220.766 13.7432C219.937 15.3601 218.927 16.8465 217.735 18.1765C216.258 19.8194 215.17 19.9759 213.667 18.3069C211.076 15.4122 210.739 11.2136 210.403 7.53658C210.118 4.19857 205.61 3.39014 204.521 6.72816C203.666 9.33598 203.718 11.9438 203.252 14.6038C203.122 15.3601 202.708 17.8114 201.853 18.1504C200.298 18.7502 199.728 15.9599 199.417 14.995C197.863 10.2226 196.075 5.78934 191.049 3.85955C182.162 0.443305 171.177 8.16246 174.727 18.0983C176.255 22.3751 180.504 25.8696 185.116 25.8696C190.039 25.8696 192.448 21.5667 193.225 17.2116C194.003 12.8565 193.744 7.69305 190.22 4.4072C187.059 1.43428 182.137 0.860556 178.665 3.52054C176.463 5.21562 175.115 7.90168 173.69 10.2226L170.97 14.6299C170.167 15.9338 168.275 18.0722 167.913 19.5847C168.068 18.9849 168.742 21.5928 168.431 19.663C168.301 18.8285 167.369 17.7853 166.928 17.003C166.151 15.5687 165.374 14.1344 164.622 12.7001C162.938 9.46637 161.332 6.20659 159.778 2.89466C158.145 -0.599825 152.99 2.45133 154.596 5.94581L154.57 5.97189Z" fill="#EA882A"/>
</g>
</g>
<defs>
<clipPath id="clip0_58023_385">
<rect width="236" height="26" fill="white"/>
</clipPath>
</defs>
</svg>
