<svg width="99" height="31" viewBox="0 0 99 31" fill="none" xmlns="http://www.w3.org/2000/svg">
<g clip-path="url(#clip0_58001_140)">
<path d="M0.384214 7.10891C3.66627 14.0401 6.97396 21.3014 11.2047 27.7248C14.4611 32.6757 19.6663 31.3808 22.7175 26.9885C24.7688 24.0434 26.5637 20.8444 28.4868 17.7977C29.897 15.5381 32.1534 9.77475 35.2047 9.29236C41.8458 8.25141 42.0765 22.6724 37.3073 23.6625C33.615 24.4242 30.6406 18.9148 31.256 15.9697C31.897 13.0245 34.7945 11.095 37.6919 10.7649C46.5637 9.74936 46.2304 18.8132 49.3842 24.1957C51.974 28.6134 57.5893 31.1523 61.897 27.4963C67.2816 22.9263 65.8201 15.9697 67.8201 9.97787L60.6919 9.01308C61.1791 14.294 61.7688 19.7019 64.7175 24.2973C67.0765 27.9533 71.3586 31.8632 76.1278 30.8476C80.897 29.8321 84.6919 23.9926 86.7945 20.0573C89.3073 15.3096 90.4868 8.75919 96.4099 7.10891C100.897 5.86484 98.9996 -1.06636 94.4868 0.177703C86.1535 2.4881 84.1278 9.59703 80.5381 16.4267C79.5381 18.3309 78.3073 20.1081 76.8457 21.733C75.0509 23.6879 73.7432 23.8911 71.9227 21.8853C68.7945 18.4324 68.3586 13.4308 67.974 9.03847C67.615 5.0524 62.1791 4.08761 60.8458 8.07369C59.8201 11.1712 59.8714 14.294 59.2817 17.4676C59.1278 18.3816 58.615 21.3014 57.5893 21.6822C55.7175 22.4185 54.9996 19.0925 54.615 17.9246C52.7432 12.2375 50.5637 6.95657 44.4611 4.64617C33.7432 0.53315 20.4355 9.77476 24.7432 21.606C26.5893 26.7092 31.7175 30.873 37.3329 30.873C43.2817 30.873 46.2047 25.7445 47.1278 20.5397C48.0509 15.335 47.7432 9.19081 43.5124 5.2809C39.6919 1.75182 33.7175 1.06632 29.5124 4.23995C26.8458 6.24568 25.2304 9.47009 23.4868 12.2375L20.2047 17.493C19.2304 19.0671 16.9483 21.5807 16.5124 23.4087C16.6919 22.6978 17.5124 25.7952 17.1534 23.5102C16.9996 22.4947 15.8714 21.276 15.3586 20.3366C14.4099 18.6355 13.4868 16.9345 12.5637 15.208C10.5124 11.3489 8.5637 7.46435 6.69191 3.52905C4.66627 -0.685524 -1.59014 2.94511 0.384214 7.10891Z" fill="#1B1411"/>
</g>
<defs>
<clipPath id="clip0_58001_140">
<rect width="99" height="31" fill="white"/>
</clipPath>
</defs>
</svg>

